<?xml version="1.0" encoding="UTF-8"?>
<svg xmlns="http://www.w3.org/2000/svg" xmlns:xlink="http://www.w3.org/1999/xlink" width="54px" height="48px" viewBox="0 0 54 48" version="1.1">
<g id="surface1">
<path style="fill:none;stroke-width:4;stroke-linecap:butt;stroke-linejoin:miter;stroke:rgb(100%,100%,100%);stroke-opacity:1;stroke-miterlimit:4;" d="M 37.388889 32.21346 L 59.611111 32.21346 L 70.675926 51.000814 L 59.611111 69.788167 L 37.388889 69.788167 L 26.324074 51.000814 Z M 37.388889 32.21346 " transform="matrix(0.421875,0,0,0.424779,0,0)"/>
<path style="fill:none;stroke-width:4;stroke-linecap:butt;stroke-linejoin:miter;stroke:rgb(100%,100%,100%);stroke-opacity:1;stroke-miterlimit:4;" d="M 71.388889 52.214681 L 93.611111 52.214681 L 104.675926 71.002035 L 93.611111 89.780192 L 71.388889 89.780192 L 60.324074 71.002035 Z M 71.388889 52.214681 " transform="matrix(0.421875,0,0,0.424779,0,0)"/>
<path style="fill:none;stroke-width:3;stroke-linecap:butt;stroke-linejoin:miter;stroke:rgb(100%,100%,100%);stroke-opacity:1;stroke-miterlimit:4;" d="M 60.796296 31.965169 L 72.592593 11.531738 " transform="matrix(0.421875,0,0,0.424779,0,0)"/>
<path style="fill:none;stroke-width:3;stroke-linecap:butt;stroke-linejoin:miter;stroke:rgb(100%,100%,100%);stroke-opacity:1;stroke-miterlimit:4;" d="M 62.398148 102.709717 L 69.898148 89.71582 " transform="matrix(0.421875,0,0,0.424779,0,0)"/>
<path style="fill:none;stroke-width:3;stroke-linecap:butt;stroke-linejoin:miter;stroke:rgb(100%,100%,100%);stroke-opacity:1;stroke-miterlimit:4;" d="M 102.277778 101.597005 L 92.833333 89.945719 " transform="matrix(0.421875,0,0,0.424779,0,0)"/>
<path style="fill:none;stroke-width:3;stroke-linecap:butt;stroke-linejoin:miter;stroke:rgb(100%,100%,100%);stroke-opacity:1;stroke-miterlimit:4;" d="M 36.277778 32.599691 L 26.833333 20.948405 " transform="matrix(0.421875,0,0,0.424779,0,0)"/>
<path style="fill:none;stroke-width:3;stroke-linecap:butt;stroke-linejoin:miter;stroke:rgb(100%,100%,100%);stroke-opacity:1;stroke-miterlimit:4;" d="M 12 50.504232 L 27 50.504232 " transform="matrix(0.421875,0,0,0.424779,0,0)"/>
<path style="fill:none;stroke-width:3;stroke-linecap:butt;stroke-linejoin:miter;stroke:rgb(100%,100%,100%);stroke-opacity:1;stroke-miterlimit:4;" d="M 104 71.498617 L 119 71.498617 " transform="matrix(0.421875,0,0,0.424779,0,0)"/>
<path style="fill:none;stroke-width:3;stroke-linecap:butt;stroke-linejoin:miter;stroke:rgb(100%,100%,100%);stroke-opacity:1;stroke-miterlimit:4;" d="M 29.398148 82.782064 L 36.898148 69.797363 " transform="matrix(0.421875,0,0,0.424779,0,0)"/>
<path style="fill:none;stroke-width:2;stroke-linecap:butt;stroke-linejoin:miter;stroke:rgb(100%,100%,100%);stroke-opacity:1;stroke-miterlimit:4;" d="M 81 6.998128 C 81 10.317871 78.314815 13.003092 75 13.003092 C 71.685185 13.003092 69 10.317871 69 6.998128 C 69 3.687581 71.685185 1.00236 75 1.00236 C 78.314815 1.00236 81 3.687581 81 6.998128 Z M 81 6.998128 " transform="matrix(0.421875,0,0,0.424779,0,0)"/>
<path style="fill:none;stroke-width:2;stroke-linecap:butt;stroke-linejoin:miter;stroke:rgb(100%,100%,100%);stroke-opacity:1;stroke-miterlimit:4;" d="M 13 49.998454 C 13 53.318197 10.314815 56.003418 7 56.003418 C 3.685185 56.003418 1 53.318197 1 49.998454 C 1 46.687907 3.685185 44.002686 7 44.002686 C 10.314815 44.002686 13 46.687907 13 49.998454 Z M 13 49.998454 " transform="matrix(0.421875,0,0,0.424779,0,0)"/>
<path style="fill:none;stroke-width:3;stroke-linecap:butt;stroke-linejoin:miter;stroke:rgb(100%,100%,100%);stroke-opacity:1;stroke-miterlimit:4;" d="M 92.537037 54.798747 L 101.537037 39.211589 " transform="matrix(0.421875,0,0,0.424779,0,0)"/>
<path style="fill:none;stroke-width:2;stroke-linecap:butt;stroke-linejoin:miter;stroke:rgb(100%,100%,100%);stroke-opacity:1;stroke-miterlimit:4;" d="M 109 33.997477 C 109 36.765462 106.759259 39.000081 104 39.000081 C 101.240741 39.000081 99 36.765462 99 33.997477 C 99 31.238688 101.240741 29.004069 104 29.004069 C 106.759259 29.004069 109 31.238688 109 33.997477 Z M 109 33.997477 " transform="matrix(0.421875,0,0,0.424779,0,0)"/>
<path style="fill:none;stroke-width:2;stroke-linecap:butt;stroke-linejoin:miter;stroke:rgb(100%,100%,100%);stroke-opacity:1;stroke-miterlimit:4;" d="M 65 107.004232 C 65 109.763021 62.759259 111.99764 60 111.99764 C 57.240741 111.99764 55 109.763021 55 107.004232 C 55 104.236247 57.240741 102.001628 60 102.001628 C 62.759259 102.001628 65 104.236247 65 107.004232 Z M 65 107.004232 " transform="matrix(0.421875,0,0,0.424779,0,0)"/>
<path style="fill:none;stroke-width:2;stroke-linecap:butt;stroke-linejoin:miter;stroke:rgb(100%,100%,100%);stroke-opacity:1;stroke-miterlimit:4;" d="M 31 86.000651 C 31 88.207682 29.212963 90.000895 27 90.000895 C 24.787037 90.000895 23 88.207682 23 86.000651 C 23 83.79362 24.787037 82.000407 27 82.000407 C 29.212963 82.000407 31 83.79362 31 86.000651 Z M 31 86.000651 " transform="matrix(0.421875,0,0,0.424779,0,0)"/>
<path style="fill:none;stroke-width:2;stroke-linecap:butt;stroke-linejoin:miter;stroke:rgb(100%,100%,100%);stroke-opacity:1;stroke-miterlimit:4;" d="M 127 72.004395 C 127 74.211426 125.212963 75.995443 123 75.995443 C 120.787037 75.995443 119 74.211426 119 72.004395 C 119 69.788167 120.787037 68.00415 123 68.00415 C 125.212963 68.00415 127 69.788167 127 72.004395 Z M 127 72.004395 " transform="matrix(0.421875,0,0,0.424779,0,0)"/>
<path style="fill:none;stroke-width:2;stroke-linecap:butt;stroke-linejoin:miter;stroke:rgb(100%,100%,100%);stroke-opacity:1;stroke-miterlimit:4;" d="M 109 104.999512 C 109 107.206543 107.212963 108.999756 105 108.999756 C 102.787037 108.999756 101 107.206543 101 104.999512 C 101 102.79248 102.787037 100.999268 105 100.999268 C 107.212963 100.999268 109 102.79248 109 104.999512 Z M 109 104.999512 " transform="matrix(0.421875,0,0,0.424779,0,0)"/>
<path style="fill:none;stroke-width:2;stroke-linecap:butt;stroke-linejoin:miter;stroke:rgb(100%,100%,100%);stroke-opacity:1;stroke-miterlimit:4;" d="M 29 17.996501 C 29 20.212728 27.212963 21.996745 25 21.996745 C 22.787037 21.996745 21 20.212728 21 17.996501 C 21 15.789469 22.787037 13.996257 25 13.996257 C 27.212963 13.996257 29 15.789469 29 17.996501 Z M 29 17.996501 " transform="matrix(0.421875,0,0,0.424779,0,0)"/>
<path style="fill:none;stroke-width:5;stroke-linecap:butt;stroke-linejoin:miter;stroke:rgb(5.882353%,52.941179%,93.725491%);stroke-opacity:1;stroke-miterlimit:4;" d="M 72 52.499756 L 79.074074 52.499756 " transform="matrix(0.421875,0,0,0.424779,0,0)"/>
<path style="fill:none;stroke-width:5;stroke-linecap:butt;stroke-linejoin:miter;stroke:rgb(5.882353%,52.941179%,93.725491%);stroke-opacity:1;stroke-miterlimit:4;" d="M 47 69.503092 L 59.074074 69.503092 " transform="matrix(0.421875,0,0,0.424779,0,0)"/>
<path style=" stroke:none;fill-rule:nonzero;fill:rgb(100%,100%,100%);fill-opacity:1;" d="M 24.046875 29.523438 L 25.3125 27.5 L 25.3125 31.546875 Z M 24.046875 29.523438 "/>
<path style=" stroke:none;fill-rule:nonzero;fill:rgb(100%,100%,100%);fill-opacity:1;" d="M 31.21875 22.300781 L 29.953125 24.324219 L 29.953125 20.277344 Z M 31.21875 22.300781 "/>
</g>
</svg>
