<svg width="107" height="67" viewBox="0 0 107 67" fill="none" xmlns="http://www.w3.org/2000/svg">
<path d="M106.8 33.3L91.2 5.4C89.2 1.8 86.8 -0.099999 83.2 1.03842e-06H78.9L94.9 28.9L97.3 33.2L94.9 37.5L78.7 66.7H83.1C86.6 66.8 89.1 64.9 91.1 61.3L106.8 33.3Z" fill="#C31E3E"/>
<path d="M74.2 0H5.4C2.4 0 0 2.4 0 5.4V33.3V33.4V61.3C0 64.3 2.4 66.7 5.4 66.7H74.1L92.6 33.3L74.2 0ZM34.4 48.3H28.9L15.2 26.4V48.3C15.2 48.3 9.9 48.3 10 48.3V18.5H15.7L29.4 40.5V18.5H34.4V48.3ZM44.8 48.4H39.6V18.5H44.8V48.4ZM69.1 48.4V35H55.4V48.4H50.2V18.5H55.4V30.4H69V18.5H74.2V48.3H69.1V48.4V48.4Z" fill="#585B5E"/>
</svg>
