<svg width="208" height="130" viewBox="0 0 208 130" fill="none" xmlns="http://www.w3.org/2000/svg">
<path d="M144.4 36.1V94.1H134.3V67.8H107.7V94.1H97.6V36.1H107.7V59.3H134.3V36.1H144.4ZM87.4 94.4H77.3V36.4H87.4V94.4ZM67.3 94.4H56.5L29.9 51.6H29.6V94.4H19.8V36.4H30.6L57.2 79.2H57.5V36.4H67.3V94.4ZM180.3 65L144.4 0H11.8C5.09999 0 -0.0999756 5.40002 -0.0999756 11.9V117.9C-0.0999756 124.6 5.29999 129.8 11.8 129.8H144.1L180.3 65Z" fill="#646569"/>
<path d="M153.5 130L189.6 65L153.7 0H162.7C167.6 0 173.5 3.60001 175.9 7.70001L207.4 65L175.7 122.3C173.4 126.7 167.4 130 162.3 130H153.5Z" fill="#71963E"/>
</svg>
