<svg width="20" height="20" viewBox="0 0 20 20" fill="none" xmlns="http://www.w3.org/2000/svg">
<g clip-path="url(#clip0_907_19)">
<path d="M2.97623 1.3335H13.6905C14.5978 1.3335 15.3334 2.06903 15.3334 2.97635V13.6906C15.3334 14.598 14.5978 15.3335 13.6905 15.3335H2.97623C2.06891 15.3335 1.33337 14.598 1.33337 13.6906V2.97635C1.33337 2.06903 2.06891 1.3335 2.97623 1.3335Z" fill="white" stroke="black"/>
<path d="M6.30948 4.6665H17.0238C17.9311 4.6665 18.6666 5.40204 18.6666 6.30936V17.0236C18.6666 17.931 17.9311 18.6665 17.0238 18.6665H6.30948C5.40216 18.6665 4.66663 17.931 4.66663 17.0236V6.30936C4.66663 5.40204 5.40216 4.6665 6.30948 4.6665Z" fill="white" stroke="black"/>
<path d="M8.76705 15V9.54545H9.60511V15H8.76705ZM9.19318 8.63636C9.02983 8.63636 8.88897 8.58073 8.7706 8.46946C8.65459 8.35819 8.59659 8.22443 8.59659 8.06818C8.59659 7.91193 8.65459 7.77817 8.7706 7.6669C8.88897 7.55563 9.02983 7.5 9.19318 7.5C9.35653 7.5 9.49621 7.55563 9.61222 7.6669C9.73059 7.77817 9.78977 7.91193 9.78977 8.06818C9.78977 8.22443 9.73059 8.35819 9.61222 8.46946C9.49621 8.58073 9.35653 8.63636 9.19318 8.63636ZM13.1998 15.1136C12.7452 15.1136 12.3439 14.9988 11.9959 14.7692C11.6479 14.5372 11.3757 14.2105 11.1792 13.7891C10.9827 13.3653 10.8844 12.8646 10.8844 12.2869C10.8844 11.714 10.9827 11.2169 11.1792 10.7955C11.3757 10.3741 11.6491 10.0485 11.9995 9.81889C12.3498 9.58925 12.7547 9.47443 13.214 9.47443C13.5691 9.47443 13.8496 9.53362 14.0556 9.65199C14.2639 9.76799 14.4225 9.90057 14.5314 10.0497C14.6427 10.1965 14.7291 10.3172 14.7907 10.4119H14.8617V7.72727H15.6998V15H14.8901V14.1619H14.7907C14.7291 14.2614 14.6415 14.3868 14.5279 14.5384C14.4142 14.6875 14.2521 14.8213 14.0414 14.9396C13.8307 15.0556 13.5501 15.1136 13.1998 15.1136ZM13.3134 14.3608C13.6496 14.3608 13.9337 14.2732 14.1657 14.098C14.3977 13.9205 14.574 13.6754 14.6948 13.3629C14.8155 13.0481 14.8759 12.6847 14.8759 12.2727C14.8759 11.8655 14.8167 11.5092 14.6983 11.2038C14.58 10.8961 14.4048 10.657 14.1728 10.4865C13.9408 10.3137 13.6543 10.2273 13.3134 10.2273C12.9583 10.2273 12.6623 10.3184 12.4256 10.5007C12.1912 10.6806 12.0149 10.9257 11.8965 11.2358C11.7805 11.5436 11.7225 11.8892 11.7225 12.2727C11.7225 12.661 11.7817 13.0137 11.9 13.331C12.0208 13.6458 12.1983 13.8968 12.4327 14.0838C12.6694 14.2685 12.963 14.3608 13.3134 14.3608Z" fill="black"/>
</g>
<defs>
<clipPath id="clip0_907_19">
<rect width="20" height="20" fill="white"/>
</clipPath>
</defs>
</svg>
