<svg width="61" height="61" viewBox="0 0 61 61" fill="none" xmlns="http://www.w3.org/2000/svg">
<path d="M23.0806 36.532C23.0372 35.7047 22.3314 35.0692 21.5042 35.1126L8.02266 35.8191C7.19537 35.8625 6.55986 36.5683 6.60322 37.3955C6.64658 38.2228 7.35237 38.8583 8.17967 38.815L20.1632 38.187L20.7912 50.1705C20.8346 50.9978 21.5404 51.6333 22.3677 51.5899C23.195 51.5466 23.8305 50.8408 23.7871 50.0135L23.0806 36.532ZM2.52976 60.0126L22.6974 37.6142L20.4679 35.6068L0.300322 58.0052L2.52976 60.0126Z" fill="black"/>
<path d="M23.0806 36.532C23.0372 35.7047 22.3314 35.0692 21.5042 35.1126L8.02266 35.8191C7.19537 35.8625 6.55986 36.5683 6.60322 37.3955C6.64658 38.2228 7.35237 38.8583 8.17967 38.815L20.1632 38.187L20.7912 50.1705C20.8346 50.9978 21.5404 51.6333 22.3677 51.5899C23.195 51.5466 23.8305 50.8408 23.7871 50.0135L23.0806 36.532ZM2.52976 60.0126L22.6974 37.6142L20.4679 35.6068L0.300322 58.0052L2.52976 60.0126Z" fill="black"/>
<path d="M36.1927 22.6132C36.1927 23.4417 36.8642 24.1132 37.6927 24.1132H51.1927C52.0211 24.1132 52.6927 23.4417 52.6927 22.6132C52.6927 21.7848 52.0211 21.1132 51.1927 21.1132H39.1927V9.11325C39.1927 8.28482 38.5211 7.61325 37.6927 7.61325C36.8642 7.61325 36.1927 8.28482 36.1927 9.11325V22.6132ZM57.9442 0.240366L36.632 21.5526L38.7533 23.6739L60.0655 2.36169L57.9442 0.240366Z" fill="black"/>
</svg>
