<svg width="62" height="63" viewBox="0 0 62 63" fill="none" xmlns="http://www.w3.org/2000/svg">
<path d="M0.500247 60.6419C0.512299 61.4702 1.19357 62.1319 2.02191 62.1199L15.5205 61.9235C16.3488 61.9114 17.0106 61.2301 16.9985 60.4018C16.9864 59.5735 16.3052 58.9117 15.4768 58.9238L3.47811 59.0984L3.30353 47.0996C3.29147 46.2713 2.6102 45.6096 1.78186 45.6216C0.953523 45.6337 0.291792 46.3149 0.303844 47.1433L0.500247 60.6419ZM21.924 37.9549L0.92411 59.5749L3.07607 61.6651L24.076 40.0451L21.924 37.9549Z" fill="black"/>
<path d="M0.500247 60.6419C0.512299 61.4702 1.19357 62.1319 2.02191 62.1199L15.5205 61.9235C16.3488 61.9114 17.0106 61.2301 16.9985 60.4018C16.9864 59.5735 16.3052 58.9117 15.4768 58.9238L3.47811 59.0984L3.30353 47.0996C3.29147 46.2713 2.6102 45.6096 1.78186 45.6216C0.953523 45.6337 0.291792 46.3149 0.303844 47.1433L0.500247 60.6419ZM21.924 37.9549L0.92411 59.5749L3.07607 61.6651L24.076 40.0451L21.924 37.9549Z" fill="black"/>
<path d="M61.1929 1.95708C61.1692 1.12899 60.4787 0.476916 59.6506 0.500626L46.1562 0.886989C45.3281 0.910698 44.676 1.60122 44.6997 2.4293C44.7234 3.25739 45.4139 3.90947 46.242 3.88576L58.2371 3.54233L58.5805 15.5374C58.6042 16.3655 59.2948 17.0176 60.1228 16.9939C60.9509 16.9702 61.603 16.2796 61.5793 15.4516L61.1929 1.95708ZM40.0906 24.9433L60.7841 3.02988L58.603 0.970141L37.9094 22.8836L40.0906 24.9433Z" fill="black"/>
</svg>
