<svg
  viewBox="0 0 2060 256"
  fill="none"
  xmlns="http://www.w3.org/2000/svg"
>
  <path
    d="M1952.29 157.633H2040.99V103.124H1952.29V67.7929H2056.56V9.45909H1890.62V251.154H2059.89V192.814H1952.29V157.633ZM1525.27 174.766L1501.48 125.962L1478.67 174.766H1525.27ZM1502.69 0.547791L1633.63 251.154H1562.52L1547.18 219.7H1457.68L1442.98 251.154H1374.57L1502.69 0.547791ZM1092.07 106.14C1070.9 96.3808 1057.92 89.7504 1057.92 76.9667C1057.92 68.722 1065.09 63.7997 1077.09 63.7997C1097.1 63.7997 1112.08 84.6365 1112.08 84.6365L1145.61 37.497C1145.61 37.497 1121.32 5.45755 1072.42 5.45755C1020.23 5.45755 992.913 41.4298 992.913 76.9667C992.913 124.383 1028.78 141.708 1057.6 155.629C1075.85 164.445 1090.26 171.406 1090.26 182.98C1090.26 191.772 1083.76 196.815 1072.42 196.815C1043.72 196.815 1023.26 166.407 1023.26 166.407L984.224 214.042C984.224 214.042 1010.27 255.155 1071.09 255.155C1119.87 255.155 1155.27 224.52 1155.27 182.313C1155.27 135.28 1120.23 119.121 1092.07 106.14ZM1323.22 90.6357C1323.22 78.2707 1313.16 68.2095 1300.79 68.2095H1273.99V113.062H1300.79C1313.16 113.062 1323.22 103.001 1323.22 90.6357ZM1386.35 91.2898C1386.35 135.623 1350.14 173.075 1307.29 173.075H1273.99V251.41H1212.32V9.60909H1307.29C1350.14 9.60909 1386.35 47.0145 1386.35 91.2898ZM861.518 174.766L837.72 125.962L814.918 174.766H861.518ZM838.936 0.547791L969.872 251.154H898.768L883.43 219.7H793.924L779.228 251.154H710.811L838.936 0.547791ZM1767.86 196.815C1728.7 196.815 1701.35 169.467 1701.35 130.31C1701.35 89.9066 1725.36 63.7997 1762.53 63.7997C1798.86 63.7997 1808.93 82.6347 1808.93 82.6347L1841.22 36.6513C1841.22 36.6513 1815.44 5.45755 1762.53 5.45755C1685.87 5.45755 1636.34 54.4656 1636.34 130.31C1636.34 204.985 1687.19 255.155 1762.86 255.155C1812.06 255.155 1847.47 223.085 1847.47 223.085L1818.31 174.262C1818.31 174.262 1798.17 196.815 1767.86 196.815ZM727.831 9.45909H526.131V67.7929H596.141V251.154H657.817V67.7929H727.831V9.45909ZM374.544 157.633H463.242V103.124H374.544V67.7929H478.809V9.45909H312.869V251.154H482.144V192.814H374.544V157.633ZM121.283 95.0039L239.174 0.970657V251.154H177.501V129.943L121.381 174.583L61.8099 129.366V251.154H0.134644V1.1248L121.283 95.0039Z"
    fill="white"
  />
  <text>METASPACE</text>
</svg>
