<svg width="25" height="22" viewBox="0 0 25 22" fill="none" xmlns="http://www.w3.org/2000/svg">
<path d="M7.10296 4.8125C7.10296 5.79796 6.24337 6.625 5.14707 6.625C4.05078 6.625 3.19119 5.79796 3.19119 4.8125C3.19119 3.82704 4.05078 3 5.14707 3C6.24337 3 7.10296 3.82704 7.10296 4.8125Z" stroke="black" stroke-width="0.5"/>
<path d="M21.8088 2.0625C21.8088 3.04796 20.9492 3.875 19.8529 3.875C18.7567 3.875 17.8971 3.04796 17.8971 2.0625C17.8971 1.07704 18.7567 0.25 19.8529 0.25C20.9492 0.25 21.8088 1.07704 21.8088 2.0625Z" stroke="black" stroke-width="0.5"/>
<path d="M24.75 17.1875C24.75 18.173 23.8904 19 22.7941 19C21.6978 19 20.8382 18.173 20.8382 17.1875C20.8382 16.202 21.6978 15.375 22.7941 15.375C23.8904 15.375 24.75 16.202 24.75 17.1875Z" stroke="black" stroke-width="0.5"/>
<path d="M4.16176 19.9375C4.16176 20.923 3.30218 21.75 2.20588 21.75C1.10959 21.75 0.25 20.923 0.25 19.9375C0.25 18.952 1.10959 18.125 2.20588 18.125C3.30218 18.125 4.16176 18.952 4.16176 19.9375Z" stroke="black" stroke-width="0.5"/>
<path d="M2.57635 17.8324L4.41176 6.875" stroke="black" stroke-width="0.5"/>
<line y1="-0.25" x2="16.4086" y2="-0.25" transform="matrix(0.985856 -0.167595 0.190882 0.981613 4.41177 20.625)" stroke="black" stroke-width="0.5"/>
<line y1="-0.25" x2="11.3864" y2="-0.25" transform="matrix(-0.258306 -0.966063 0.973751 -0.227614 23.5294 15.125)" stroke="black" stroke-width="0.5"/>
<line y1="-0.25" x2="10.3855" y2="-0.25" transform="matrix(0.991197 -0.132396 0.151036 0.988528 7.35294 4.125)" stroke="black" stroke-width="0.5"/>
</svg>
