<svg viewBox="0 0 24 24" xmlns="http://www.w3.org/2000/svg">
  <path class="primary" d="M15.1 19.34C13.6255 19.9833 11.9913 20.1671 10.4107 19.8674C8.83018 19.5677 7.37669 18.7984 6.24001 17.66L1.30001 12.7C1.20628 12.607 1.13189 12.4964 1.08112 12.3746C1.03035 12.2527 1.00421 12.122 1.00421 11.99C1.00421 11.858 1.03035 11.7273 1.08112 11.6054C1.13189 11.4836 1.20628 11.373 1.30001 11.28L4.18001 8.40001L6.98001 11.2C6.85451 11.9809 6.91607 12.7805 7.15964 13.5331C7.40321 14.2856 7.82184 14.9696 8.38114 15.5289C8.94043 16.0882 9.62444 16.5068 10.377 16.7504C11.1295 16.9939 11.9291 17.0555 12.71 16.93L15.11 19.33L15.1 19.34ZM8.84001 4.60001C10.3 3.9992 11.9052 3.84382 13.4533 4.15345C15.0015 4.46308 16.4234 5.22387 17.54 6.34001L22.5 11.29C22.5937 11.383 22.6681 11.4936 22.7189 11.6154C22.7697 11.7373 22.7958 11.868 22.7958 12C22.7958 12.132 22.7697 12.2627 22.7189 12.3846C22.6681 12.5064 22.5937 12.617 22.5 12.71L19.72 15.49L16.85 12.62C16.9441 11.8647 16.8646 11.098 16.6175 10.3781C16.3703 9.65822 15.9621 9.00427 15.4239 8.46608C14.8857 7.9279 14.2318 7.51968 13.5119 7.27254C12.7921 7.02541 12.0253 6.94587 11.27 7.04001L8.85001 4.60001H8.84001Z" />
  <path class="secondary" d="M3.29998 4.70001L19.3 20.7C19.4925 20.8444 19.7308 20.9146 19.9709 20.8975C20.211 20.8804 20.4369 20.7773 20.6071 20.6071C20.7773 20.4369 20.8804 20.211 20.8975 19.9709C20.9145 19.7308 20.8444 19.4926 20.7 19.3L4.69998 3.30001C4.5074 3.15558 4.2692 3.08546 4.02909 3.10252C3.78898 3.11959 3.56308 3.22269 3.39287 3.3929C3.22266 3.56311 3.11956 3.78901 3.10249 4.02912C3.08543 4.26923 3.15555 4.50744 3.29998 4.70001Z" />
</svg>
