<svg xmlns="http://www.w3.org/2000/svg" viewBox="0 0 24 24" class="icon-scale"><path class="primary" d="M11 6.39L6.32 7.95a1 1 0 0 1-.64 0l-3-1a1 1 0 0 1 .64-1.9l2.68.9 5-1.67V3a1 1 0 0 1 2 0v1.28l5 1.67 2.68-.9a1 1 0 0 1 .64 1.9l-3 1a1 1 0 0 1-.64 0L13 6.39V18c0 1.1.9 2 2 2h1v2H8v-2h1a2 2 0 0 0 2-2V6.39z"/><path class="secondary" d="M17.05 6.68a1 1 0 0 1 1.9 0l3 9a1 1 0 0 1-.4 1.15A6.36 6.36 0 0 1 18 18c-1.2 0-2.4-.4-3.55-1.17a1 1 0 0 1-.4-1.15l3-9zM19.61 15L18 10.16 16.39 15h3.22zM5.05 6.68a1 1 0 0 1 1.9 0l3 9a1 1 0 0 1-.4 1.15A6.36 6.36 0 0 1 6 18c-1.2 0-2.4-.4-3.55-1.17a1 1 0 0 1-.4-1.15l3-9zM7.61 15L6 10.16 4.39 15H7.6z"/></svg>