<svg xmlns="http://www.w3.org/2000/svg" viewBox="0 0 24 24" class="icon-calculator"><path class="primary" d="M6 2h12a2 2 0 0 1 2 2v16a2 2 0 0 1-2 2H6a2 2 0 0 1-2-2V4c0-1.1.9-2 2-2zm2 3a1 1 0 1 0 0 2h8a1 1 0 0 0 0-2H8zm0 4a1 1 0 1 0 0 2 1 1 0 0 0 0-2zm4 0a1 1 0 1 0 0 2 1 1 0 0 0 0-2zm4 0a1 1 0 1 0 0 2 1 1 0 0 0 0-2zm-8 4a1 1 0 1 0 0 2 1 1 0 0 0 0-2zm4 0a1 1 0 1 0 0 2 1 1 0 0 0 0-2zm-4 4a1 1 0 1 0 0 2 1 1 0 0 0 0-2zm4 0a1 1 0 1 0 0 2 1 1 0 0 0 0-2z"/><rect width="2" height="6" x="15" y="13" class="secondary" rx="1"/></svg>