<svg xmlns="http://www.w3.org/2000/svg" viewBox="0 0 24 24" class="icon-puzzle"><path class="primary" d="M6 11V8c0-1.1.9-2 2-2h3a1 1 0 0 0 1-1V4a2 2 0 1 1 4 0v1a1 1 0 0 0 1 1h3a2 2 0 0 1 2 2v3a1 1 0 0 1-1 1h-1a2 2 0 1 0 0 4h1a1 1 0 0 1 1 1v3a2 2 0 0 1-2 2h-3a1 1 0 0 1-1-1v-1a2 2 0 1 0-4 0v1a1 1 0 0 1-1 1H8a2 2 0 0 1-2-2v-3a1 1 0 0 0-1-1H4a2 2 0 1 1 0-4h1a1 1 0 0 0 1-1z"/><path class="secondary" d="M22 17v3a2 2 0 0 1-2 2h-3a1 1 0 0 1-1-1v-1a2 2 0 1 0-4 0v1a1 1 0 0 1-1 1H8a2 2 0 0 1-2-2v-3a1 1 0 0 0-1-1H4a2 2 0 1 1 0-4h1a1 1 0 0 0 1-1v-.6c.54-.24 1.18-.4 1.97-.4 4 0 4 4 8.02 4 .84 0 1.5-.18 2.06-.45A2 2 0 0 0 20 16h1a1 1 0 0 1 1 1z"/></svg>