<svg width="24" height="24" viewBox="0 0 24 24" fill="none" xmlns="http://www.w3.org/2000/svg">
<path d="M22 10H2V6C2 4.9 2.9 4 4 4H11L13 6H20C20.5304 6 21.0391 6.21071 21.4142 6.58579C21.7893 6.96086 22 7.46957 22 8V10Z" fill="#808080"/>
<path d="M20 8H4C2.89543 8 2 8.89543 2 10V18C2 19.1046 2.89543 20 4 20H20C21.1046 20 22 19.1046 22 18V10C22 8.89543 21.1046 8 20 8Z" fill="#808080"/>
<path d="M6.75 9H17.25C17.7141 9 18.1592 9.47411 18.4874 10.318C18.8156 11.1619 19 12.3065 19 13.5C19 14.6935 18.8156 15.8381 18.4874 16.682C18.1592 17.5259 17.7141 18 17.25 18H6.75C6.28587 18 5.84075 17.5259 5.51256 16.682C5.18437 15.8381 5 14.6935 5 13.5C5 12.3065 5.18437 11.1619 5.51256 10.318C5.84075 9.47411 6.28587 9 6.75 9Z" fill="white"/>
<path d="M11.2396 14.8318V10.6366C11.2396 10.4678 11.3197 10.3058 11.4623 10.1865C11.6049 10.0671 11.7983 10 12 10C12.2017 10 12.3951 10.0671 12.5377 10.1865C12.6803 10.3058 12.7604 10.4678 12.7604 10.6366V14.8318L13.7489 14.0042C13.8953 13.9007 14.0829 13.8473 14.2742 13.8546C14.4656 13.8619 14.6466 13.9294 14.7811 14.0436C14.9156 14.1578 14.9936 14.3103 14.9996 14.4706C15.0056 14.6309 14.9391 14.7872 14.8135 14.9082L12.5323 16.818C12.3901 16.9347 12.199 17 12 17C11.801 17 11.6099 16.9347 11.4677 16.818L9.18653 14.9082C9.06085 14.7872 8.99437 14.6309 9.00037 14.4706C9.00638 14.3103 9.08443 14.1578 9.21892 14.0436C9.35341 13.9294 9.53442 13.8619 9.72579 13.8546C9.91715 13.8473 10.1047 13.9007 10.2511 14.0042L11.2396 14.8318Z" fill="#808080"/>
</svg>
