<svg viewBox="0 0 24 24" xmlns="http://www.w3.org/2000/svg">
  <path class="secondary" d="M17.56 17.66C16.817 18.4038 15.9347 18.9939 14.9635 19.3965C13.9923 19.7991 12.9513 20.0063 11.9 20.0063C10.8487 20.0063 9.80767 19.7991 8.83649 19.3965C7.8653 18.9939 6.98299 18.4038 6.24001 17.66L1.30001 12.7C1.20628 12.607 1.13189 12.4964 1.08112 12.3746C1.03035 12.2527 1.00421 12.122 1.00421 11.99C1.00421 11.858 1.03035 11.7273 1.08112 11.6054C1.13189 11.4836 1.20628 11.373 1.30001 11.28L6.25001 6.33C6.99299 5.58619 7.8753 4.99611 8.84649 4.59352C9.81767 4.19092 10.8587 3.9837 11.91 3.9837C12.9613 3.9837 14.0023 4.19092 14.9735 4.59352C15.9447 4.99611 16.827 5.58619 17.57 6.33L22.52 11.28C22.6137 11.373 22.6881 11.4836 22.7389 11.6054C22.7897 11.7273 22.8158 11.858 22.8158 11.99C22.8158 12.122 22.7897 12.2527 22.7389 12.3746C22.6881 12.4964 22.6137 12.607 22.52 12.7L17.57 17.65L17.56 17.66ZM11.9 17C13.2261 17 14.4979 16.4732 15.4355 15.5355C16.3732 14.5978 16.9 13.3261 16.9 12C16.9 10.6739 16.3732 9.40215 15.4355 8.46446C14.4979 7.52678 13.2261 7 11.9 7C10.5739 7 9.30216 7.52678 8.36448 8.46446C7.42679 9.40215 6.90001 10.6739 6.90001 12C6.90001 13.3261 7.42679 14.5978 8.36448 15.5355C9.30216 16.4732 10.5739 17 11.9 17Z" />
  <path class="primary" d="M12 15C13.6569 15 15 13.6569 15 12C15 10.3431 13.6569 9 12 9C10.3431 9 9 10.3431 9 12C9 13.6569 10.3431 15 12 15Z" />
</svg>
